<svg width="31" height="31" viewBox="0 0 31 31" fill="none" xmlns="http://www.w3.org/2000/svg">
<path opacity="0.2" d="M12.8635 23.5729L7.66599 18.3754L5.38048 24.675C5.3173 24.8403 5.30332 25.0204 5.34023 25.1935C5.37715 25.3665 5.46338 25.5252 5.58851 25.6503C5.71365 25.7755 5.87233 25.8617 6.04541 25.8986C6.21848 25.9355 6.39854 25.9216 6.56384 25.8584L12.8635 23.5729Z" fill="#F8D57E"/>
<path opacity="0.2" d="M24.0295 18.1379L24.0298 18.1381C24.132 18.2395 24.2069 18.365 24.2476 18.503C24.2883 18.6411 24.2935 18.7872 24.2626 18.9277C24.2317 19.0683 24.1658 19.1988 24.071 19.3071C23.9761 19.4154 23.8555 19.4979 23.7202 19.5471L19.008 21.2596L9.97921 12.2308L11.6917 7.51854C11.7409 7.38328 11.8234 7.26263 11.9317 7.16781C12.04 7.07299 12.1704 7.00707 12.311 6.97619C12.4516 6.94531 12.5977 6.95045 12.7357 6.99116C12.8738 7.03186 12.9993 7.1068 13.1006 7.209L13.1009 7.20923L24.0295 18.1379Z" fill="#F8D57E" stroke="#F8D57E" stroke-width="0.148438"/>
<path d="M5.38048 24.6751L11.6221 7.49319C11.6756 7.34617 11.7653 7.21503 11.883 7.11197C12.0007 7.00891 12.1425 6.93727 12.2953 6.9037C12.4481 6.87013 12.6069 6.87573 12.7569 6.91997C12.907 6.96421 13.0434 7.04566 13.1535 7.15675L24.0822 18.0854C24.1933 18.1956 24.2747 18.332 24.319 18.482C24.3632 18.6321 24.3688 18.7909 24.3353 18.9437C24.3017 19.0965 24.23 19.2383 24.127 19.356C24.0239 19.4737 23.8928 19.5634 23.7458 19.6168L6.56384 25.8585C6.39854 25.9217 6.21848 25.9356 6.04541 25.8987C5.87233 25.8618 5.71365 25.7756 5.58851 25.6504C5.46338 25.5253 5.37715 25.3666 5.34023 25.1935C5.30332 25.0205 5.3173 24.8404 5.38048 24.6751V24.6751Z" stroke="#F8D57E" stroke-width="2.375" stroke-linecap="round" stroke-linejoin="round"/>
<path d="M20.4739 8.90853C20.4739 8.90853 20.4739 6.12416 23.2583 6.12416C26.0426 6.12416 26.0426 3.33978 26.0426 3.33978" stroke="#F8D57E" stroke-width="2.375" stroke-linecap="round" stroke-linejoin="round"/>
<path d="M12.8635 23.5729L7.66602 18.3754" stroke="#F8D57E" stroke-width="2.375" stroke-linecap="round" stroke-linejoin="round"/>
<path d="M17.6895 2.41168V5.19606" stroke="#F8D57E" stroke-width="2.375" stroke-linecap="round" stroke-linejoin="round"/>
<path d="M26.0427 13.5491L27.899 15.4054" stroke="#F8D57E" stroke-width="2.375" stroke-linecap="round" stroke-linejoin="round"/>
<path d="M26.0427 9.83669L28.8271 8.90857" stroke="#F8D57E" stroke-width="2.375" stroke-linecap="round" stroke-linejoin="round"/>
<path d="M9.89331 12.2498L18.9889 21.3454" stroke="#F8D57E" stroke-width="2.375" stroke-linecap="round" stroke-linejoin="round"/>
</svg>
