<svg width="24" height="24" viewBox="0 0 24 24" fill="none" xmlns="http://www.w3.org/2000/svg">
<path fill-rule="evenodd" clip-rule="evenodd" d="M0.297852 11.932C0.297852 5.40443 5.58949 0.112793 12.1171 0.112793C18.6446 0.112793 23.9363 5.40443 23.9363 11.932C23.9363 18.4596 18.6446 23.7512 12.1171 23.7512C5.58949 23.7512 0.297852 18.4596 0.297852 11.932Z" fill="#E5F4F2"/>
<path fill-rule="evenodd" clip-rule="evenodd" d="M12.1176 5.62842C10.4057 5.62842 10.1908 5.6359 9.51844 5.6665C8.84737 5.69723 8.3893 5.80348 7.9885 5.95936C7.5739 6.12036 7.22221 6.33574 6.87183 6.68625C6.52119 7.03662 6.30582 7.38832 6.14429 7.80278C5.98801 8.20372 5.88163 8.66191 5.85143 9.33273C5.82136 10.0051 5.81348 10.2201 5.81348 11.9321C5.81348 13.644 5.82109 13.8582 5.85156 14.5306C5.88242 15.2017 5.98867 15.6597 6.14442 16.0605C6.30555 16.4751 6.52093 16.8268 6.87144 17.1772C7.22168 17.5279 7.57337 17.7438 7.98771 17.9048C8.38878 18.0606 8.84697 18.1669 9.51792 18.1976C10.1903 18.2282 10.405 18.2357 12.1169 18.2357C13.8289 18.2357 14.0431 18.2282 14.7155 18.1976C15.3866 18.1669 15.8452 18.0606 16.2463 17.9048C16.6607 17.7438 17.0119 17.5279 17.3621 17.1772C17.7128 16.8268 17.9282 16.4751 18.0897 16.0607C18.2446 15.6597 18.351 15.2015 18.3825 14.5307C18.4127 13.8583 18.4206 13.644 18.4206 11.9321C18.4206 10.2201 18.4127 10.0052 18.3825 9.33286C18.351 8.66178 18.2446 8.20372 18.0897 7.80291C17.9282 7.38832 17.7128 7.03662 17.3621 6.68625C17.0115 6.33561 16.6609 6.12023 16.2459 5.95936C15.844 5.80348 15.3857 5.69723 14.7146 5.6665C14.0422 5.6359 13.8282 5.62842 12.1157 5.62842H12.1176ZM11.5521 6.76437C11.72 6.76411 11.9072 6.76437 12.1176 6.76437C13.8007 6.76437 14.0002 6.77041 14.6648 6.80061C15.2794 6.82872 15.613 6.93142 15.8352 7.0177C16.1294 7.13195 16.3391 7.26853 16.5596 7.48916C16.7802 7.70978 16.9168 7.9199 17.0313 8.21407C17.1176 8.43602 17.2204 8.76958 17.2484 9.38419C17.2786 10.0487 17.2852 10.2483 17.2852 11.9306C17.2852 13.6129 17.2786 13.8125 17.2484 14.477C17.2203 15.0916 17.1176 15.4252 17.0313 15.6471C16.917 15.9413 16.7802 16.1508 16.5596 16.3712C16.339 16.5919 16.1295 16.7285 15.8352 16.8427C15.6132 16.9294 15.2794 17.0318 14.6648 17.0599C14.0003 17.0901 13.8007 17.0967 12.1176 17.0967C10.4344 17.0967 10.2349 17.0901 9.57042 17.0599C8.95581 17.0316 8.62225 16.9289 8.39991 16.8426C8.10574 16.7283 7.89562 16.5917 7.67499 16.3711C7.45437 16.1505 7.31779 15.9409 7.20327 15.6466C7.11699 15.4247 7.01416 15.0911 6.98619 14.4765C6.95598 13.812 6.94994 13.6124 6.94994 11.929C6.94994 10.2457 6.95598 10.0471 6.98619 9.38261C7.01429 8.76801 7.11699 8.43444 7.20327 8.21224C7.31752 7.91807 7.45437 7.70794 7.67499 7.48732C7.89562 7.26669 8.10574 7.13011 8.39991 7.0156C8.62212 6.92892 8.95581 6.82649 9.57042 6.79825C10.1519 6.77199 10.3773 6.76411 11.5521 6.76279V6.76437ZM15.4824 7.81104C15.0648 7.81104 14.726 8.14946 14.726 8.56721C14.726 8.98483 15.0648 9.32365 15.4824 9.32365C15.9001 9.32365 16.2389 8.98483 16.2389 8.56721C16.2389 8.1496 15.9001 7.81104 15.4824 7.81104ZM12.1177 8.69486C10.3299 8.69486 8.88047 10.1443 8.88047 11.932C8.88047 13.7198 10.3299 15.1686 12.1177 15.1686C13.9054 15.1686 15.3543 13.7198 15.3543 11.932C15.3543 10.1443 13.9054 8.69486 12.1177 8.69486ZM12.1176 9.83083C13.278 9.83083 14.2188 10.7715 14.2188 11.932C14.2188 13.0924 13.278 14.0333 12.1176 14.0333C10.9571 14.0333 10.0164 13.0924 10.0164 11.932C10.0164 10.7715 10.9571 9.83083 12.1176 9.83083Z" fill="#2D2D2D"/>
</svg>
