<svg width="32" height="33" viewBox="0 0 32 33" fill="none" xmlns="http://www.w3.org/2000/svg">
<path fill-rule="evenodd" clip-rule="evenodd" d="M0 16.9121C0 8.07555 7.16344 0.912109 16 0.912109C24.8366 0.912109 32 8.07555 32 16.9121C32 25.7487 24.8366 32.9121 16 32.9121C7.16344 32.9121 0 25.7487 0 16.9121Z" fill="#4E4D4D"/>
<path d="M11.546 10.7939C11.5224 9.72571 10.7586 8.91211 9.51815 8.91211C8.27774 8.91211 7.4668 9.72571 7.4668 10.7939C7.4668 11.84 8.25377 12.677 9.47108 12.677H9.49426C10.7586 12.677 11.546 11.84 11.546 10.7939Z" fill="white"/>
<path d="M11.3072 14.1641H7.68121V25.0585H11.3072V14.1641Z" fill="white"/>
<path d="M20.2089 13.9082C22.5949 13.9082 24.3837 15.4656 24.3837 18.8119L24.3836 25.0585H20.7578V19.23C20.7578 17.7659 20.2331 16.7669 18.9205 16.7669C17.9187 16.7669 17.3221 17.4404 17.06 18.0909C16.9641 18.324 16.9406 18.6488 16.9406 18.9744V25.0588H13.3142C13.3142 25.0588 13.362 15.1866 13.3142 14.1643H16.9406V15.7074C17.4218 14.9656 18.2838 13.9082 20.2089 13.9082Z" fill="white"/>
</svg>
