<svg width="32" height="33" viewBox="0 0 32 33" fill="none" xmlns="http://www.w3.org/2000/svg">
<path fill-rule="evenodd" clip-rule="evenodd" d="M0 16.9121C0 8.07555 7.16344 0.912109 16 0.912109C24.8366 0.912109 32 8.07555 32 16.9121C32 25.7487 24.8366 32.9121 16 32.9121C7.16344 32.9121 0 25.7487 0 16.9121Z" fill="#4E4D4D"/>
<path fill-rule="evenodd" clip-rule="evenodd" d="M16.0007 8.37866C13.6832 8.37866 13.3923 8.3888 12.4821 8.43022C11.5736 8.47182 10.9535 8.61564 10.4109 8.82667C9.84969 9.04462 9.37359 9.33618 8.89928 9.81068C8.42461 10.285 8.13305 10.7611 7.91438 11.3222C7.70282 11.8649 7.55882 12.4852 7.51793 13.3933C7.47722 14.3035 7.46655 14.5945 7.46655 16.9121C7.46655 19.2296 7.47686 19.5196 7.51811 20.4298C7.55989 21.3383 7.70371 21.9584 7.91456 22.5009C8.13269 23.0622 8.42425 23.5383 8.89875 24.0126C9.37288 24.4873 9.84898 24.7795 10.4099 24.9975C10.9528 25.2085 11.5731 25.3523 12.4814 25.3939C13.3916 25.4354 13.6823 25.4455 15.9996 25.4455C18.3173 25.4455 18.6073 25.4354 19.5175 25.3939C20.426 25.3523 21.0468 25.2085 21.5897 24.9975C22.1508 24.7795 22.6262 24.4873 23.1003 24.0126C23.575 23.5383 23.8665 23.0622 24.0852 22.5011C24.295 21.9584 24.439 21.3381 24.4817 20.43C24.5226 19.5198 24.5332 19.2296 24.5332 16.9121C24.5332 14.5945 24.5226 14.3037 24.4817 13.3935C24.439 12.485 24.295 11.8649 24.0852 11.3223C23.8665 10.7611 23.575 10.285 23.1003 9.81068C22.6256 9.33601 22.151 9.04445 21.5892 8.82667C21.0452 8.61564 20.4247 8.47182 19.5163 8.43022C18.606 8.3888 18.3163 8.37866 15.998 8.37866H16.0007ZM15.2351 9.91643C15.4623 9.91608 15.7158 9.91643 16.0006 9.91643C18.2791 9.91643 18.5491 9.92461 19.4489 9.9655C20.2809 10.0035 20.7324 10.1426 21.0332 10.2594C21.4315 10.414 21.7154 10.5989 22.0139 10.8976C22.3125 11.1963 22.4974 11.4807 22.6525 11.8789C22.7693 12.1794 22.9085 12.6309 22.9463 13.463C22.9872 14.3625 22.9961 14.6327 22.9961 16.9101C22.9961 19.1875 22.9872 19.4577 22.9463 20.3573C22.9083 21.1893 22.7693 21.6408 22.6525 21.9413C22.4978 22.3395 22.3125 22.6231 22.0139 22.9215C21.7152 23.2202 21.4316 23.4051 21.0332 23.5598C20.7328 23.6771 20.2809 23.8158 19.4489 23.8538C18.5493 23.8947 18.2791 23.9036 16.0006 23.9036C13.722 23.9036 13.452 23.8947 12.5524 23.8538C11.7204 23.8154 11.2689 23.6764 10.9679 23.5596C10.5697 23.4049 10.2852 23.22 9.98654 22.9214C9.68787 22.6227 9.50298 22.339 9.34796 21.9406C9.23116 21.6401 9.09196 21.1885 9.05409 20.3565C9.0132 19.457 9.00502 19.1868 9.00502 16.908C9.00502 14.6292 9.0132 14.3604 9.05409 13.4608C9.09213 12.6288 9.23116 12.1773 9.34796 11.8765C9.50263 11.4782 9.68787 11.1938 9.98654 10.8951C10.2852 10.5964 10.5697 10.4115 10.9679 10.2565C11.2687 10.1392 11.7204 10.0005 12.5524 9.9623C13.3396 9.92674 13.6447 9.91608 15.2351 9.9143V9.91643ZM20.5557 11.3333C19.9904 11.3333 19.5317 11.7915 19.5317 12.357C19.5317 12.9223 19.9904 13.381 20.5557 13.381C21.1211 13.381 21.5797 12.9223 21.5797 12.357C21.5797 11.7917 21.1211 11.3333 20.5557 11.3333ZM16.0007 12.5298C13.5806 12.5298 11.6184 14.4919 11.6184 16.9121C11.6184 19.3322 13.5806 21.2934 16.0007 21.2934C18.4208 21.2934 20.3823 19.3322 20.3823 16.9121C20.3823 14.4919 18.4208 12.5298 16.0007 12.5298ZM16.0007 14.0676C17.5715 14.0676 18.8451 15.341 18.8451 16.9121C18.8451 18.4829 17.5715 19.7565 16.0007 19.7565C14.4296 19.7565 13.1562 18.4829 13.1562 16.9121C13.1562 15.341 14.4296 14.0676 16.0007 14.0676Z" fill="white"/>
</svg>
