<svg width="32" height="33" viewBox="0 0 32 33" fill="none" xmlns="http://www.w3.org/2000/svg">
<path fill-rule="evenodd" clip-rule="evenodd" d="M0 16.9121C0 8.07555 7.16344 0.912109 16 0.912109C24.8366 0.912109 32 8.07555 32 16.9121C32 25.7487 24.8366 32.9121 16 32.9121C7.16344 32.9121 0 25.7487 0 16.9121Z" fill="#4E4D4D"/>
<path fill-rule="evenodd" clip-rule="evenodd" d="M22.6679 11.4116C23.4022 11.6131 23.9805 12.2069 24.1768 12.9609C24.5335 14.3274 24.5335 17.1787 24.5335 17.1787C24.5335 17.1787 24.5335 20.03 24.1768 21.3966C23.9805 22.1506 23.4022 22.7443 22.6679 22.946C21.3371 23.3121 16.0001 23.3121 16.0001 23.3121C16.0001 23.3121 10.6632 23.3121 9.3323 22.946C8.59795 22.7443 8.01962 22.1506 7.82335 21.3966C7.4668 20.03 7.4668 17.1787 7.4668 17.1787C7.4668 17.1787 7.4668 14.3274 7.82335 12.9609C8.01962 12.2069 8.59795 11.6131 9.3323 11.4116C10.6632 11.0454 16.0001 11.0454 16.0001 11.0454C16.0001 11.0454 21.3371 11.0454 22.6679 11.4116ZM14.4001 14.7787V20.112L18.6668 17.4455L14.4001 14.7787Z" fill="white"/>
</svg>
