<svg width="32" height="33" viewBox="0 0 32 33" fill="none" xmlns="http://www.w3.org/2000/svg">
<path fill-rule="evenodd" clip-rule="evenodd" d="M0 16.9121C0 8.07555 7.16344 0.912109 16 0.912109C24.8366 0.912109 32 8.07555 32 16.9121C32 25.7487 24.8366 32.9121 16 32.9121C7.16344 32.9121 0 25.7487 0 16.9121Z" fill="#DBD8FF"/>
<path fill-rule="evenodd" clip-rule="evenodd" d="M18.3722 13.3587H22.8917V12.0639H18.3722V13.3587ZM19.4429 16.1841C19.1549 16.4771 18.9733 16.8741 18.899 17.375H22.4141C22.377 16.8404 22.1944 16.4365 21.8712 16.1583C21.5441 15.8821 21.1417 15.7445 20.6601 15.7445C20.1383 15.7445 19.7309 15.891 19.4429 16.1841ZM22.4933 14.4457C23.0382 14.6853 23.4868 15.0654 23.84 15.5842C24.1621 16.0415 24.3688 16.5721 24.4631 17.175C24.5183 17.5274 24.5404 18.0382 24.5314 18.7025H18.8488C18.8829 19.4737 19.1518 20.0152 19.6656 20.325C19.9767 20.5181 20.351 20.6151 20.7905 20.6151C21.2531 20.6151 21.6314 20.4973 21.9214 20.2627C22.0809 20.135 22.2214 19.9587 22.3418 19.733H24.424C24.3688 20.1884 24.1159 20.6527 23.6684 21.1239C22.97 21.8713 21.9916 22.2455 20.7343 22.2455C19.6957 22.2455 18.7796 21.9307 17.9878 21.2991C17.1921 20.6685 16.7967 19.641 16.7967 18.2194C16.7967 16.886 17.155 15.8633 17.8704 15.1516C18.5879 14.4418 19.5161 14.0844 20.659 14.0844C21.3384 14.0844 21.9495 14.2052 22.4933 14.4457ZM9.56888 17.4027V20.1775H12.1297C12.5873 20.1775 12.9445 20.1161 13.1984 19.9944C13.661 19.7667 13.8918 19.3351 13.8918 18.6956C13.8918 18.1531 13.669 17.7818 13.2204 17.5789C12.9696 17.4661 12.6174 17.4067 12.1658 17.4027H9.56888ZM9.56888 13.3855V15.6812H12.1337C12.5903 15.6812 12.9626 15.595 13.2495 15.4228C13.5345 15.2505 13.678 14.9456 13.678 14.5101C13.678 14.024 13.4894 13.7042 13.1121 13.5478C12.7849 13.4399 12.3695 13.3855 11.8648 13.3855H9.56888ZM15.2966 12.6876C15.6187 13.1301 15.7803 13.6587 15.7803 14.2755C15.7803 14.91 15.6187 15.4218 15.2926 15.8079C15.11 16.0237 14.842 16.2217 14.4878 16.3999C15.0257 16.5939 15.4311 16.8998 15.707 17.3186C15.98 17.7363 16.1174 18.2452 16.1174 18.8431C16.1174 19.4598 15.9609 20.0132 15.6468 20.5022C15.4481 20.8259 15.1993 21.0992 14.9002 21.3209C14.5641 21.5753 14.1677 21.7486 13.7091 21.8436C13.2506 21.9377 12.7549 21.9832 12.219 21.9832H7.46667V11.5789H12.5632C13.8496 11.5977 14.7598 11.9669 15.2966 12.6876Z" fill="#2D2D2D"/>
</svg>
