<svg width="25" height="24" viewBox="0 0 25 24" fill="none" xmlns="http://www.w3.org/2000/svg">
<path fill-rule="evenodd" clip-rule="evenodd" d="M0.38269 11.932C0.38269 5.40443 5.67433 0.112793 12.2019 0.112793C18.7295 0.112793 24.0211 5.40443 24.0211 11.932C24.0211 18.4596 18.7295 23.7512 12.2019 23.7512C5.67433 23.7512 0.38269 18.4596 0.38269 11.932Z" fill="#E5F4F2"/>
<path fill-rule="evenodd" clip-rule="evenodd" d="M11.8479 9.71962L11.8727 10.1286L11.4593 10.0785C9.95464 9.88655 8.64015 9.23553 7.52406 8.14216L6.97842 7.59965L6.83788 8.00027C6.54025 8.89333 6.7304 9.83647 7.35045 10.4708C7.68114 10.8213 7.60674 10.8714 7.03629 10.6628C6.83788 10.596 6.66426 10.5459 6.64773 10.5709C6.58986 10.6294 6.78827 11.3889 6.94535 11.6894C7.1603 12.1067 7.59847 12.5156 8.07797 12.7577L8.48307 12.9497L8.00356 12.958C7.5406 12.958 7.52406 12.9664 7.57367 13.1416C7.73901 13.6841 8.39213 14.26 9.11965 14.5104L9.63222 14.6857L9.18579 14.9528C8.5244 15.3367 7.74728 15.5537 6.97015 15.5704C6.59813 15.5788 6.29224 15.6121 6.29224 15.6372C6.29224 15.7206 7.30085 16.188 7.88782 16.3717C9.64876 16.9142 11.7404 16.6805 13.3112 15.754C14.4272 15.0947 15.5433 13.7843 16.0642 12.5156C16.3453 11.8396 16.6263 10.6043 16.6263 10.0117C16.6263 9.62781 16.6511 9.57773 17.1141 9.11868C17.3869 8.8516 17.6432 8.55948 17.6928 8.47601C17.7755 8.31743 17.7672 8.31743 17.3456 8.45932C16.6429 8.70971 16.5437 8.67633 16.8909 8.30074C17.1472 8.03366 17.4531 7.54957 17.4531 7.40768C17.4531 7.38264 17.3291 7.42437 17.1885 7.49949C17.0397 7.58295 16.709 7.70815 16.461 7.78327L16.0146 7.92516L15.6095 7.64973C15.3863 7.49949 15.0721 7.33256 14.9068 7.28249C14.4851 7.16564 13.8403 7.18233 13.46 7.31587C12.4266 7.69146 11.7734 8.65963 11.8479 9.71962Z" fill="#2D2D2D"/>
</svg>
