<svg width="27" height="26" viewBox="0 0 27 26" fill="none" xmlns="http://www.w3.org/2000/svg">
<path opacity="0.2" d="M21.503 4.10211H18.3018C17.8598 4.10211 17.5015 4.46042 17.5015 4.90242V8.10364C17.5015 8.54563 17.8598 8.90394 18.3018 8.90394H21.503C21.945 8.90394 22.3033 8.54563 22.3033 8.10364V4.90242C22.3033 4.46042 21.945 4.10211 21.503 4.10211Z" fill="#009379"/>
<path opacity="0.2" d="M5.49696 4.14737H8.69818C9.11518 4.14737 9.45323 4.48541 9.45323 4.90242V8.10364C9.45323 8.52064 9.11518 8.85869 8.69818 8.85869H5.49696C5.07996 8.85869 4.74191 8.52064 4.74191 8.10364V4.90242C4.74191 4.48541 5.07996 4.14737 5.49696 4.14737Z" fill="#009379" stroke="#009379" stroke-width="0.0905107"/>
<path opacity="0.2" d="M18.3018 16.9522H21.503C21.92 16.9522 22.258 17.2903 22.258 17.7073V20.9085C22.258 21.3255 21.92 21.6636 21.503 21.6636H18.3018C17.8848 21.6636 17.5467 21.3255 17.5467 20.9085V17.7073C17.5467 17.2903 17.8848 16.9522 18.3018 16.9522Z" fill="#009379" stroke="#009379" stroke-width="0.0905107"/>
<path opacity="0.2" d="M5.49696 16.9522H8.69818C9.11518 16.9522 9.45323 17.2903 9.45323 17.7073V20.9085C9.45323 21.3255 9.11518 21.6636 8.69818 21.6636H5.49696C5.07996 21.6636 4.74191 21.3255 4.74191 20.9085V17.7073C4.74191 17.2903 5.07996 16.9522 5.49696 16.9522Z" fill="#009379" stroke="#009379" stroke-width="0.0905107"/>
<path d="M21.503 4.10211H18.3018C17.8598 4.10211 17.5015 4.46042 17.5015 4.90242V8.10364C17.5015 8.54563 17.8598 8.90394 18.3018 8.90394H21.503C21.945 8.90394 22.3033 8.54563 22.3033 8.10364V4.90242C22.3033 4.46042 21.945 4.10211 21.503 4.10211Z" stroke="#009379" stroke-width="1.44817" stroke-linecap="round" stroke-linejoin="round"/>
<path d="M8.69818 4.10211H5.49696C5.05496 4.10211 4.69666 4.46042 4.69666 4.90242V8.10364C4.69666 8.54563 5.05496 8.90394 5.49696 8.90394H8.69818C9.14018 8.90394 9.49848 8.54563 9.49848 8.10364V4.90242C9.49848 4.46042 9.14018 4.10211 8.69818 4.10211Z" stroke="#009379" stroke-width="1.44817" stroke-linecap="round" stroke-linejoin="round"/>
<path d="M21.503 16.907H18.3018C17.8598 16.907 17.5015 17.2653 17.5015 17.7073V20.9085C17.5015 21.3505 17.8598 21.7088 18.3018 21.7088H21.503C21.945 21.7088 22.3033 21.3505 22.3033 20.9085V17.7073C22.3033 17.2653 21.945 16.907 21.503 16.907Z" stroke="#009379" stroke-width="1.44817" stroke-linecap="round" stroke-linejoin="round"/>
<path d="M8.69818 16.907H5.49696C5.05496 16.907 4.69666 17.2653 4.69666 17.7073V20.9085C4.69666 21.3505 5.05496 21.7088 5.49696 21.7088H8.69818C9.14018 21.7088 9.49848 21.3505 9.49848 20.9085V17.7073C9.49848 17.2653 9.14018 16.907 8.69818 16.907Z" stroke="#009379" stroke-width="1.44817" stroke-linecap="round" stroke-linejoin="round"/>
<path d="M7.09753 16.907V8.90393" stroke="#009379" stroke-width="1.44817" stroke-linecap="round" stroke-linejoin="round"/>
<path d="M17.5015 19.3079H9.49841" stroke="#009379" stroke-width="1.44817" stroke-linecap="round" stroke-linejoin="round"/>
<path d="M19.9025 8.90393V16.907" stroke="#009379" stroke-width="1.44817" stroke-linecap="round" stroke-linejoin="round"/>
<path d="M9.49841 6.50305H17.5015" stroke="#009379" stroke-width="1.44817" stroke-linecap="round" stroke-linejoin="round"/>
</svg>
