<svg width="26" height="27" viewBox="0 0 26 27" fill="none" xmlns="http://www.w3.org/2000/svg">
<path opacity="0.2" d="M18.0684 7.48315C18.5263 8.31709 18.7672 9.2528 18.7687 10.2042V10.5943C18.7703 10.9557 18.6481 11.3066 18.4223 11.5887C18.1966 11.8709 17.8811 12.0672 17.5282 12.1449C16.0967 12.4649 14.6333 12.6193 13.1665 12.6051C11.6998 12.6193 10.2363 12.4649 8.80489 12.1449C8.45203 12.0672 8.13647 11.8709 7.91076 11.5887C7.68505 11.3066 7.56281 10.9557 7.56441 10.5943V10.2842C7.56499 9.30225 7.82005 8.33719 8.3047 7.48315C4.55327 8.25345 1.96228 9.90408 1.96228 11.8048C1.96228 14.4558 6.97419 16.6066 13.1665 16.6066C19.3589 16.6066 24.3708 14.4558 24.3708 11.8048C24.3708 9.90408 21.7998 8.26345 18.0684 7.48315Z" fill="#0000FF"/>
<path d="M17.2482 19.4777L17.6383 21.8386" stroke="#0000FF" stroke-width="1.44817" stroke-linecap="round" stroke-linejoin="round"/>
<path d="M13.1666 19.8079V23.0091" stroke="#0000FF" stroke-width="1.44817" stroke-linecap="round" stroke-linejoin="round"/>
<path d="M9.08497 19.4777L8.69482 21.8386" stroke="#0000FF" stroke-width="1.44817" stroke-linecap="round" stroke-linejoin="round"/>
<path d="M18.0684 7.48315C21.7998 8.26345 24.3708 9.90408 24.3708 11.8048C24.3708 14.4558 19.3589 16.6066 13.1665 16.6066C6.97419 16.6066 1.96228 14.4558 1.96228 11.8048C1.96228 9.90408 4.55327 8.25345 8.3047 7.48315" stroke="#0000FF" stroke-width="1.44817" stroke-linecap="round" stroke-linejoin="round"/>
<path d="M7.56447 10.5943C7.56287 10.9557 7.6851 11.3066 7.91081 11.5888C8.13653 11.8709 8.45209 12.0672 8.80494 12.1449C10.2364 12.4649 11.6999 12.6193 13.1666 12.6051C14.6333 12.6193 16.0968 12.4649 17.5283 12.1449C17.8811 12.0672 18.1967 11.8709 18.4224 11.5888C18.6481 11.3066 18.7703 10.9557 18.7687 10.5943V10.2042C18.7688 9.46258 18.6216 8.72834 18.3357 8.04405C18.0498 7.35977 17.6309 6.73905 17.1032 6.21792C16.5756 5.69679 15.9497 5.28561 15.2619 5.00823C14.5741 4.73085 13.8381 4.59279 13.0966 4.60206C10.0154 4.64208 7.56447 7.21306 7.56447 10.2842V10.5943Z" stroke="#0000FF" stroke-width="1.44817" stroke-linecap="round" stroke-linejoin="round"/>
</svg>
