<svg width="32" height="33" viewBox="0 0 32 33" fill="none" xmlns="http://www.w3.org/2000/svg">
<path fill-rule="evenodd" clip-rule="evenodd" d="M0 16.9121C0 8.07555 7.16344 0.912109 16 0.912109C24.8366 0.912109 32 8.07555 32 16.9121C32 25.7487 24.8366 32.9121 16 32.9121C7.16344 32.9121 0 25.7487 0 16.9121Z" fill="#DBD8FF"/>
<path fill-rule="evenodd" clip-rule="evenodd" d="M24.5333 16.9002C24.5333 17.4773 24.4746 18.0535 24.3592 18.6153C24.2467 19.1637 24.08 19.7021 23.8617 20.2168C23.6483 20.7224 23.3837 21.2096 23.0745 21.6639C22.77 22.1154 22.4191 22.539 22.0337 22.9251C21.6474 23.3096 21.2224 23.6595 20.7711 23.9653C20.3152 24.2724 19.8273 24.5366 19.3215 24.7509C18.806 24.9681 18.2664 25.1345 17.7184 25.2469C17.1559 25.3626 16.5776 25.4216 15.9996 25.4216C15.4213 25.4216 14.8429 25.3626 14.2812 25.2469C13.7324 25.1345 13.1928 24.9681 12.6778 24.7509C12.1719 24.5366 11.6836 24.2724 11.2277 23.9653C10.7764 23.6595 10.3514 23.3096 9.96599 22.9251C9.58015 22.539 9.22928 22.1154 8.92427 21.6639C8.61675 21.2096 8.35172 20.7224 8.13755 20.2168C7.91918 19.7021 7.75211 19.1637 7.63919 18.6153C7.52503 18.0535 7.46667 17.4773 7.46667 16.9002C7.46667 16.3226 7.52499 15.7451 7.63922 15.1846C7.75215 14.6362 7.91922 14.097 8.13759 13.5831C8.35175 13.0771 8.61678 12.5895 8.9243 12.1351C9.22931 11.6833 9.58018 11.2605 9.96602 10.8739C10.3515 10.4895 10.7765 10.1404 11.2278 9.83498C11.6836 9.52664 12.172 9.26246 12.6778 9.04774C13.1929 8.83008 13.7324 8.66326 14.2812 8.55176C14.8429 8.43693 15.4213 8.37866 15.9997 8.37866C16.5776 8.37866 17.1559 8.43693 17.7185 8.55176C18.2664 8.66329 18.806 8.83012 19.3215 9.04774C19.8273 9.26243 20.3153 9.52664 20.7711 9.83498C21.2224 10.1404 21.6475 10.4895 22.0337 10.8739C22.4191 11.2605 22.77 11.6833 23.0746 12.1351C23.3837 12.5895 23.6483 13.0772 23.8617 13.5831C24.08 14.097 24.2467 14.6362 24.3592 15.1846C24.4746 15.7451 24.5333 16.3226 24.5333 16.9002ZM12.8903 10.318C10.8581 11.2763 9.34131 13.1462 8.86836 15.3997C9.06048 15.4014 12.0973 15.4397 15.5962 14.5114C14.3349 12.2736 12.9874 10.4475 12.8903 10.318ZM16.2 15.6319C12.4477 16.7537 8.84711 16.673 8.71795 16.668C8.71585 16.7462 8.71211 16.8219 8.71211 16.9002C8.71211 18.7696 9.41839 20.4739 10.5793 21.7626C10.5768 21.7588 12.5711 18.2258 16.5038 16.9559C16.5988 16.9243 16.6955 16.896 16.7913 16.8685C16.6084 16.455 16.4087 16.0405 16.2 15.6319ZM20.8124 11.4386C19.5293 10.3089 17.8447 9.62362 15.9996 9.62362C15.4075 9.62362 14.8329 9.6952 14.2824 9.82751C14.3916 9.97399 15.7604 11.7873 17.0067 14.0724C19.7565 13.043 20.7944 11.4652 20.8124 11.4386ZM17.288 18.0744C17.2718 18.0797 17.2556 18.0844 17.2397 18.0902C12.94 19.587 11.5358 22.6034 11.5206 22.6363C12.7578 23.5971 14.3096 24.1767 15.9996 24.1767C17.0088 24.1767 17.9701 23.9715 18.8448 23.6C18.7368 22.9642 18.3135 20.7357 17.288 18.0744ZM20.0719 22.9351C21.7082 21.8325 22.8703 20.0816 23.1945 18.0535C23.0445 18.0053 21.0057 17.3607 18.6535 17.7373C19.6093 20.3603 19.9977 22.4966 20.0719 22.9351ZM17.5676 15.1567C17.7368 15.5038 17.9006 15.857 18.0518 16.2119C18.1056 16.3393 18.1581 16.4641 18.2093 16.5889C20.7128 16.2743 23.1792 16.8036 23.2846 16.8252C23.2679 15.1001 22.65 13.5169 21.6275 12.2774C21.6137 12.2969 20.4449 13.9833 17.5676 15.1567Z" fill="#2D2D2D"/>
</svg>
