<svg width="25" height="24" viewBox="0 0 25 24" fill="none" xmlns="http://www.w3.org/2000/svg">
<path fill-rule="evenodd" clip-rule="evenodd" d="M0.840332 11.932C0.840332 5.40443 6.13197 0.112793 12.6595 0.112793C19.1871 0.112793 24.4787 5.40443 24.4787 11.932C24.4787 18.4596 19.1871 23.7512 12.6595 23.7512C6.13197 23.7512 0.840332 18.4596 0.840332 11.932Z" fill="#E5F4F2"/>
<path fill-rule="evenodd" clip-rule="evenodd" d="M18.9631 11.9233C18.9631 12.3496 18.9197 12.7753 18.8345 13.1902C18.7513 13.5953 18.6282 13.9931 18.4669 14.3733C18.3094 14.7467 18.1139 15.1066 17.8855 15.4423C17.6605 15.7758 17.4013 16.0887 17.1166 16.3739C16.8313 16.6579 16.5173 16.9164 16.1839 17.1423C15.8472 17.3691 15.4868 17.5643 15.1131 17.7226C14.7323 17.883 14.3337 18.006 13.9289 18.089C13.5134 18.1744 13.0862 18.2181 12.6592 18.2181C12.232 18.2181 11.8048 18.1744 11.3899 18.089C10.9845 18.006 10.5859 17.883 10.2054 17.7226C9.83174 17.5643 9.47098 17.3691 9.13424 17.1423C8.80089 16.9164 8.48692 16.6579 8.2022 16.3739C7.91718 16.0887 7.65799 15.7758 7.43268 15.4423C7.20552 15.1066 7.00974 14.7467 6.85154 14.3733C6.69022 13.9931 6.56681 13.5953 6.48339 13.1902C6.39906 12.7753 6.35596 12.3496 6.35596 11.9233C6.35596 11.4966 6.39904 11.07 6.48342 10.656C6.56684 10.2509 6.69025 9.85252 6.85156 9.47293C7.00976 9.09919 7.20554 8.73897 7.4327 8.40331C7.65802 8.06952 7.9172 7.75722 8.20222 7.47168C8.48695 7.18766 8.80091 6.92981 9.13427 6.7042C9.471 6.47643 9.83177 6.28128 10.2054 6.12267C10.5859 5.96188 10.9845 5.83865 11.3899 5.75629C11.8048 5.67146 12.232 5.62842 12.6593 5.62842C13.0862 5.62842 13.5134 5.67146 13.929 5.75629C14.3337 5.83867 14.7323 5.96191 15.1131 6.12267C15.4868 6.28126 15.8472 6.47643 16.184 6.7042C16.5173 6.92981 16.8313 7.18766 17.1166 7.47168C17.4013 7.75722 17.6605 8.06952 17.8855 8.40331C18.1139 8.73897 18.3094 9.09921 18.4669 9.47293C18.6282 9.85252 18.7513 10.2509 18.8345 10.656C18.9197 11.07 18.9631 11.4966 18.9631 11.9233ZM10.3624 7.06104C8.86117 7.76891 7.74075 9.1502 7.39138 10.8149C7.5333 10.8161 9.7766 10.8444 12.3613 10.1587C11.4295 8.50564 10.4341 7.15666 10.3624 7.06104ZM12.8073 10.9864C10.0355 11.815 7.37569 11.7554 7.28028 11.7517C7.27872 11.8095 7.27596 11.8654 7.27596 11.9232C7.27596 13.3042 7.79769 14.5632 8.65524 15.5151C8.65339 15.5123 10.1266 12.9025 13.0317 11.9644C13.1018 11.9411 13.1733 11.9202 13.244 11.8999C13.1089 11.5944 12.9615 11.2882 12.8073 10.9864ZM16.2144 7.88878C15.2667 7.05427 14.0222 6.54807 12.6592 6.54807C12.2218 6.54807 11.7974 6.60094 11.3908 6.69868C11.4714 6.80689 12.4825 8.14636 13.4032 9.83438C15.4344 9.07398 16.2012 7.90844 16.2144 7.88878ZM13.611 12.7906C13.599 12.7946 13.587 12.798 13.5753 12.8023C10.3991 13.908 9.36184 16.1362 9.35062 16.1606C10.2645 16.8703 11.4108 17.2984 12.6593 17.2984C13.4048 17.2984 14.1149 17.1469 14.7609 16.8724C14.6812 16.4028 14.3685 14.7565 13.611 12.7906ZM15.6674 16.3813C16.8762 15.5668 17.7346 14.2734 17.9741 12.7752C17.8633 12.7396 16.3572 12.2635 14.6196 12.5416C15.3257 14.4793 15.6126 16.0573 15.6674 16.3813ZM13.8175 10.6354C13.9425 10.8917 14.0635 11.1526 14.1752 11.4149C14.2149 11.5089 14.2537 11.6011 14.2916 11.6933C16.1409 11.461 17.9628 11.8519 18.0407 11.8679C18.0284 10.5936 17.5719 9.42405 16.8165 8.50843C16.8064 8.52284 15.943 9.7686 13.8175 10.6354Z" fill="#2D2D2D"/>
</svg>
