<svg width="32" height="33" viewBox="0 0 32 33" fill="none" xmlns="http://www.w3.org/2000/svg">
<path fill-rule="evenodd" clip-rule="evenodd" d="M0 16.9121C0 8.07555 7.16344 0.912109 16 0.912109C24.8366 0.912109 32 8.07555 32 16.9121C32 25.7487 24.8366 32.9121 16 32.9121C7.16344 32.9121 0 25.7487 0 16.9121Z" fill="#DBD8FF"/>
<path fill-rule="evenodd" clip-rule="evenodd" d="M16.0008 8.37866C13.6833 8.37866 13.3924 8.3888 12.4822 8.43022C11.5737 8.47182 10.9536 8.61564 10.4111 8.82667C9.84981 9.04462 9.37372 9.33618 8.8994 9.81068C8.42473 10.285 8.13317 10.7611 7.9145 11.3222C7.70294 11.8649 7.55894 12.4852 7.51805 13.3933C7.47734 14.3035 7.46667 14.5945 7.46667 16.9121C7.46667 19.2296 7.47699 19.5196 7.51823 20.4298C7.56001 21.3383 7.70383 21.9584 7.91468 22.5009C8.13282 23.0622 8.42437 23.5383 8.89887 24.0126C9.37301 24.4873 9.8491 24.7795 10.41 24.9975C10.9529 25.2085 11.5732 25.3523 12.4815 25.3939C13.3917 25.4354 13.6824 25.4455 15.9997 25.4455C18.3175 25.4455 18.6074 25.4354 19.5176 25.3939C20.4261 25.3523 21.0469 25.2085 21.5898 24.9975C22.1509 24.7795 22.6263 24.4873 23.1004 24.0126C23.5751 23.5383 23.8667 23.0622 24.0853 22.5011C24.2951 21.9584 24.4391 21.3381 24.4818 20.43C24.5227 19.5198 24.5333 19.2296 24.5333 16.9121C24.5333 14.5945 24.5227 14.3037 24.4818 13.3935C24.4391 12.485 24.2951 11.8649 24.0853 11.3223C23.8667 10.7611 23.5751 10.285 23.1004 9.81068C22.6258 9.33601 22.1511 9.04445 21.5893 8.82667C21.0453 8.61564 20.4249 8.47182 19.5164 8.43022C18.6062 8.3888 18.3164 8.37866 15.9981 8.37866H16.0008ZM15.2353 9.91643C15.4625 9.91608 15.716 9.91643 16.0008 9.91643C18.2792 9.91643 18.5492 9.92461 19.449 9.9655C20.281 10.0035 20.7326 10.1426 21.0334 10.2594C21.4316 10.414 21.7155 10.5989 22.014 10.8976C22.3127 11.1963 22.4976 11.4807 22.6526 11.8789C22.7694 12.1794 22.9086 12.6309 22.9464 13.463C22.9873 14.3625 22.9962 14.6327 22.9962 16.9101C22.9962 19.1875 22.9873 19.4577 22.9464 20.3573C22.9084 21.1893 22.7694 21.6408 22.6526 21.9413C22.4979 22.3395 22.3127 22.6231 22.014 22.9215C21.7153 23.2202 21.4318 23.4051 21.0334 23.5598C20.7329 23.6771 20.281 23.8158 19.449 23.8538C18.5494 23.8947 18.2792 23.9036 16.0008 23.9036C13.7222 23.9036 13.4521 23.8947 12.5526 23.8538C11.7205 23.8154 11.269 23.6764 10.968 23.5596C10.5698 23.4049 10.2853 23.22 9.98666 22.9214C9.68799 22.6227 9.5031 22.339 9.34808 21.9406C9.23128 21.6401 9.09208 21.1885 9.05421 20.3565C9.01332 19.457 9.00514 19.1868 9.00514 16.908C9.00514 14.6292 9.01332 14.3604 9.05421 13.4608C9.09226 12.6288 9.23128 12.1773 9.34808 11.8765C9.50275 11.4782 9.68799 11.1938 9.98666 10.8951C10.2853 10.5964 10.5698 10.4115 10.968 10.2565C11.2688 10.1392 11.7205 10.0005 12.5526 9.9623C13.3398 9.92674 13.6448 9.91608 15.2353 9.9143V9.91643ZM20.5558 11.3333C19.9905 11.3333 19.5318 11.7915 19.5318 12.357C19.5318 12.9223 19.9905 13.381 20.5558 13.381C21.1212 13.381 21.5799 12.9223 21.5799 12.357C21.5799 11.7917 21.1212 11.3333 20.5558 11.3333ZM16.0008 12.5298C13.5807 12.5298 11.6186 14.4919 11.6186 16.9121C11.6186 19.3322 13.5807 21.2934 16.0008 21.2934C18.4209 21.2934 20.3824 19.3322 20.3824 16.9121C20.3824 14.4919 18.4209 12.5298 16.0008 12.5298ZM16.0008 14.0676C17.5717 14.0676 18.8453 15.341 18.8453 16.9121C18.8453 18.4829 17.5717 19.7565 16.0008 19.7565C14.4298 19.7565 13.1563 18.4829 13.1563 16.9121C13.1563 15.341 14.4298 14.0676 16.0008 14.0676Z" fill="#2D2D2D"/>
</svg>
