<svg width="32" height="33" viewBox="0 0 32 33" fill="none" xmlns="http://www.w3.org/2000/svg">
<path fill-rule="evenodd" clip-rule="evenodd" d="M0 16.9121C0 8.07555 7.16344 0.912109 16 0.912109C24.8366 0.912109 32 8.07555 32 16.9121C32 25.7487 24.8366 32.9121 16 32.9121C7.16344 32.9121 0 25.7487 0 16.9121Z" fill="#DBD8FF"/>
<path fill-rule="evenodd" clip-rule="evenodd" d="M15.5208 13.9172L15.5544 14.4708L14.9948 14.4031C12.9579 14.1432 11.1784 13.2619 9.66756 11.7818L8.92891 11.0473L8.73865 11.5897C8.33575 12.7986 8.59316 14.0754 9.43253 14.9341C9.8802 15.4086 9.77948 15.4764 9.00725 15.194C8.73865 15.1036 8.50363 15.0358 8.48124 15.0697C8.4029 15.1488 8.6715 16.1769 8.88414 16.5837C9.17513 17.1486 9.76828 17.7023 10.4174 18.0299L10.9658 18.2898L10.3167 18.3011C9.68994 18.3011 9.66756 18.3124 9.73471 18.5497C9.95854 19.2841 10.8427 20.0637 11.8276 20.4027L12.5214 20.6399L11.9171 21.0015C11.0218 21.5212 9.96973 21.815 8.91772 21.8376C8.41409 21.8489 8 21.8941 8 21.928C8 22.041 9.36538 22.6737 10.16 22.9223C12.5438 23.6567 15.3753 23.3403 17.5017 22.0862C19.0126 21.1936 20.5235 19.4197 21.2286 17.7023C21.6091 16.7871 21.9896 15.1149 21.9896 14.3127C21.9896 13.7929 22.0232 13.7251 22.6499 13.1037C23.0192 12.7421 23.3662 12.3467 23.4333 12.2337C23.5452 12.019 23.534 12.019 22.9633 12.2111C22.012 12.5501 21.8777 12.5049 22.3477 11.9964C22.6947 11.6349 23.1088 10.9795 23.1088 10.7875C23.1088 10.7536 22.9409 10.8101 22.7506 10.9118C22.5492 11.0247 22.1015 11.1942 21.7658 11.2959L21.1614 11.488L20.613 11.1151C20.3108 10.9118 19.8856 10.6858 19.6617 10.618C19.0909 10.4598 18.218 10.4824 17.7032 10.6632C16.3042 11.1716 15.4201 12.4823 15.5208 13.9172Z" fill="#2D2D2D"/>
</svg>
