<svg width="20" height="21" viewBox="0 0 20 21" fill="none" xmlns="http://www.w3.org/2000/svg">
<path opacity="0.2" d="M10 13.4121C12.7614 13.4121 15 11.1735 15 8.41211C15 5.65069 12.7614 3.41211 10 3.41211C7.23858 3.41211 5 5.65069 5 8.41211C5 11.1735 7.23858 13.4121 10 13.4121Z" fill="#4F45B6"/>
<path d="M10 13.4121C12.7614 13.4121 15 11.1735 15 8.41211C15 5.65069 12.7614 3.41211 10 3.41211C7.23858 3.41211 5 5.65069 5 8.41211C5 11.1735 7.23858 13.4121 10 13.4121Z" stroke="#4F45B6" stroke-width="0.740741" stroke-miterlimit="10"/>
<path d="M2.42188 17.7871C3.18979 16.4567 4.2944 15.352 5.62465 14.5839C6.9549 13.8158 8.46392 13.4114 10 13.4114C11.5361 13.4114 13.0451 13.8158 14.3753 14.5839C15.7056 15.352 16.8102 16.4567 17.5781 17.7871" stroke="#4F45B6" stroke-width="0.740741" stroke-linecap="round" stroke-linejoin="round"/>
</svg>
