<svg width="31" height="30" viewBox="0 0 31 30" fill="none" xmlns="http://www.w3.org/2000/svg">
<path opacity="0.2" d="M9.06897 25.3825C8.9826 25.4702 8.87965 25.5399 8.76611 25.5874C8.65257 25.635 8.53071 25.6595 8.40762 25.6595C8.28453 25.6595 8.16267 25.635 8.04913 25.5874C7.93559 25.5399 7.83264 25.4702 7.74627 25.3825L5.35613 22.9924C5.26843 22.906 5.19879 22.8031 5.15125 22.6895C5.10371 22.576 5.07922 22.4541 5.07922 22.3311C5.07922 22.208 5.10371 22.0861 5.15125 21.9726C5.19879 21.859 5.26843 21.7561 5.35613 21.6697L17.6897 9.33612L21.4026 13.049L9.06897 25.3825Z" fill="#FF6250"/>
<path d="M26.0437 14.9053V20.4746" stroke="#FF6250" stroke-width="1.67962" stroke-linecap="round" stroke-linejoin="round"/>
<path d="M23.259 17.69H28.8283" stroke="#FF6250" stroke-width="1.67962" stroke-linecap="round" stroke-linejoin="round"/>
<path d="M10.7281 4.69507V9.33612" stroke="#FF6250" stroke-width="1.67962" stroke-linecap="round" stroke-linejoin="round"/>
<path d="M8.40771 7.01562H13.0488" stroke="#FF6250" stroke-width="1.67962" stroke-linecap="round" stroke-linejoin="round"/>
<path d="M20.4744 21.4028V25.1157" stroke="#FF6250" stroke-width="1.67962" stroke-linecap="round" stroke-linejoin="round"/>
<path d="M18.6179 23.2593H22.3308" stroke="#FF6250" stroke-width="1.67962" stroke-linecap="round" stroke-linejoin="round"/>
<path d="M22.6122 4.4203L5.35861 21.6739C4.99613 22.0364 4.99613 22.6241 5.35861 22.9866L7.75837 25.3864C8.12086 25.7488 8.70857 25.7488 9.07105 25.3864L26.3247 8.13274C26.6872 7.77025 26.6872 7.18254 26.3247 6.82005L23.9249 4.4203C23.5624 4.05781 22.9747 4.05781 22.6122 4.4203Z" stroke="#FF6250" stroke-width="1.67962" stroke-linecap="round" stroke-linejoin="round"/>
<path d="M17.6897 9.33612L21.4025 13.049" stroke="#FF6250" stroke-width="1.67962" stroke-linecap="round" stroke-linejoin="round"/>
</svg>
