<svg width="24" height="25" viewBox="0 0 24 25" fill="none" xmlns="http://www.w3.org/2000/svg">
<path opacity="0.2" d="M8.67187 12.6121C9.44364 14.2059 10.7324 15.4913 12.3281 16.259C12.4458 16.3147 12.576 16.3389 12.7059 16.329C12.8358 16.3191 12.9608 16.2756 13.0687 16.2028L15.4125 14.6371C15.516 14.5669 15.6357 14.5241 15.7603 14.5126C15.8849 14.5011 16.0104 14.5214 16.125 14.5715L20.5125 16.4559C20.6625 16.5183 20.7877 16.6283 20.869 16.7689C20.9504 16.9095 20.9832 17.0729 20.9625 17.234C20.8234 18.3194 20.2937 19.3169 19.4723 20.0399C18.6509 20.7629 17.5943 21.1619 16.5 21.1621C13.1185 21.1621 9.87548 19.8188 7.48439 17.4278C5.0933 15.0367 3.75 11.7937 3.75 8.41214C3.75025 7.31789 4.1492 6.26122 4.87221 5.43985C5.59522 4.61848 6.59274 4.0887 7.67812 3.94964C7.83922 3.92895 8.00266 3.96178 8.14326 4.0431C8.28386 4.12441 8.39384 4.24969 8.45625 4.39964L10.3406 8.79651C10.3896 8.90934 10.4101 9.03249 10.4003 9.1551C10.3905 9.27772 10.3507 9.39604 10.2844 9.49964L8.71875 11.8809C8.64905 11.9886 8.60814 12.1124 8.59993 12.2404C8.59172 12.3684 8.61649 12.4964 8.67187 12.6121Z" fill="#4F45B6"/>
<path d="M8.67187 12.6121C9.44364 14.2059 10.7324 15.4913 12.3281 16.259C12.4458 16.3147 12.576 16.3389 12.7059 16.329C12.8358 16.3191 12.9608 16.2756 13.0687 16.2028L15.4125 14.6371C15.516 14.5669 15.6357 14.5241 15.7603 14.5126C15.8849 14.5011 16.0104 14.5214 16.125 14.5715L20.5125 16.4559C20.6625 16.5183 20.7877 16.6283 20.869 16.7689C20.9504 16.9095 20.9832 17.0729 20.9625 17.234C20.8234 18.3194 20.2937 19.3169 19.4723 20.0399C18.6509 20.7629 17.5943 21.1619 16.5 21.1621C13.1185 21.1621 9.87548 19.8188 7.48439 17.4278C5.0933 15.0367 3.75 11.7937 3.75 8.41214C3.75025 7.31789 4.1492 6.26122 4.87221 5.43985C5.59522 4.61848 6.59274 4.0887 7.67812 3.94964C7.83922 3.92895 8.00266 3.96178 8.14326 4.0431C8.28386 4.12441 8.39384 4.24969 8.45625 4.39964L10.3406 8.79651C10.3896 8.90934 10.4101 9.03249 10.4003 9.1551C10.3905 9.27772 10.3507 9.39604 10.2844 9.49964L8.71875 11.8809C8.64905 11.9886 8.60814 12.1124 8.59993 12.2404C8.59172 12.3684 8.61649 12.4964 8.67187 12.6121Z" stroke="#4F45B6" stroke-width="1.5" stroke-linecap="round" stroke-linejoin="round"/>
<path d="M14.9438 4.66211C16.216 5.00352 17.3759 5.67353 18.3073 6.6049C19.2387 7.53627 19.9087 8.69622 20.2501 9.96836" stroke="#4F45B6" stroke-width="1.5" stroke-linecap="round" stroke-linejoin="round"/>
<path d="M14.1655 7.55908C14.9306 7.76228 15.6284 8.16413 16.1882 8.7239C16.748 9.28367 17.1498 9.98147 17.353 10.7466" stroke="#4F45B6" stroke-width="1.5" stroke-linecap="round" stroke-linejoin="round"/>
</svg>
