<svg width="32" height="33" viewBox="0 0 32 33" fill="none" xmlns="http://www.w3.org/2000/svg">
<circle cx="16" cy="16.9121" r="16" fill="#4E4D4D"/>
<path d="M16.0001 4.91211C9.3735 4.91211 4 10.4206 4 17.2159C4 22.6521 7.43839 27.2641 12.2064 28.891C12.8061 29.0049 13.0263 28.6241 13.0263 28.2991C13.0263 28.0057 13.0152 27.0365 13.01 26.0084C9.67157 26.7526 8.96712 24.5567 8.96712 24.5567C8.42125 23.1345 7.63473 22.7564 7.63473 22.7564C6.54596 21.9927 7.7168 22.0084 7.7168 22.0084C8.92181 22.0952 9.55632 23.2763 9.55632 23.2763C10.6266 25.1573 12.3636 24.6135 13.0484 24.2991C13.1561 23.5039 13.4671 22.9611 13.8102 22.6539C11.1449 22.3428 8.34295 21.2878 8.34295 16.5733C8.34295 15.23 8.81172 14.1324 9.57937 13.2708C9.45477 12.9609 9.04402 11.7095 9.69562 10.0147C9.69562 10.0147 10.7033 9.68404 12.9965 11.2759C13.9537 11.0033 14.9803 10.8666 16.0001 10.8619C17.0199 10.8666 18.0473 11.0033 19.0063 11.2759C21.2967 9.68404 22.303 10.0147 22.303 10.0147C22.9562 11.7095 22.5452 12.9609 22.4206 13.2708C23.1901 14.1324 23.6557 15.23 23.6557 16.5733C23.6557 21.299 20.8484 22.3395 18.1762 22.6441C18.6067 23.0259 18.9902 23.7747 18.9902 24.9226C18.9902 26.5689 18.9763 27.8938 18.9763 28.2991C18.9763 28.6265 19.1923 29.0102 19.8006 28.8893C24.566 27.2606 28 22.6502 28 17.2159C28 10.4206 22.6273 4.91211 16.0001 4.91211Z" fill="white"/>
<path d="M8.58043 22.4933C8.55405 22.5538 8.46043 22.5719 8.37514 22.5304C8.28827 22.4906 8.23947 22.4081 8.26764 22.3474C8.29342 22.2851 8.38724 22.2677 8.47392 22.3095C8.56099 22.3492 8.61058 22.4325 8.58043 22.4933Z" fill="white"/>
<path d="M9.06559 23.0436C9.00846 23.0975 8.89679 23.0724 8.82103 22.9873C8.74268 22.9024 8.728 22.7888 8.78592 22.7341C8.84483 22.6803 8.95312 22.7055 9.03167 22.7904C9.11002 22.8764 9.12529 22.9891 9.06559 23.0436Z" fill="white"/>
<path d="M9.53784 23.7452C9.46445 23.7971 9.34445 23.7485 9.27027 23.6401C9.19688 23.5318 9.19688 23.4019 9.27186 23.3498C9.34624 23.2978 9.46445 23.3446 9.53963 23.4521C9.61282 23.5623 9.61282 23.6922 9.53784 23.7452Z" fill="white"/>
<path d="M10.1848 24.4231C10.1192 24.4967 9.97936 24.4769 9.87701 24.3765C9.77229 24.2782 9.74313 24.1388 9.80898 24.0652C9.87543 23.9914 10.0161 24.0121 10.1192 24.1118C10.2231 24.2098 10.2549 24.3503 10.1848 24.4231Z" fill="white"/>
<path d="M11.0774 24.8167C11.0485 24.9121 10.9138 24.9555 10.7781 24.9149C10.6426 24.8731 10.554 24.7614 10.5813 24.665C10.6095 24.5689 10.7448 24.5237 10.8814 24.5671C11.0167 24.6087 11.1056 24.7196 11.0774 24.8167Z" fill="white"/>
<path d="M12.0576 24.8897C12.061 24.9902 11.946 25.0735 11.8036 25.0753C11.6604 25.0785 11.5445 24.9972 11.5429 24.8984C11.5429 24.7969 11.6554 24.7144 11.7986 24.712C11.941 24.7091 12.0576 24.7898 12.0576 24.8897Z" fill="white"/>
<path d="M12.9699 24.7317C12.9869 24.8298 12.8879 24.9304 12.7465 24.9573C12.6075 24.9831 12.4787 24.9226 12.4611 24.8253C12.4438 24.7249 12.5446 24.6242 12.6834 24.5982C12.8251 24.5732 12.9518 24.6321 12.9699 24.7317Z" fill="white"/>
</svg>
